<?xml version="1.0" standalone="no"?>
<!DOCTYPE svg PUBLIC "-//W3C//DTD SVG 20010904//EN"
 "http://www.w3.org/TR/2001/REC-SVG-20010904/DTD/svg10.dtd">
<svg version="1.0" xmlns="http://www.w3.org/2000/svg"
 width="300.000000pt" height="300.000000pt" viewBox="0 0 300.000000 300.000000"
 preserveAspectRatio="xMidYMid meet">
<metadata>
Created by potrace 1.14, written by Peter Selinger 2001-2017
</metadata>
<g transform="translate(0.000000,300.000000) scale(0.100000,-0.100000)"
fill="#000000" stroke="none">
<path d="M891 2050 c-80 -29 -123 -61 -190 -142 -115 -140 -187 -318 -196
-487 l-4 -86 9 79 c33 281 211 562 397 626 64 22 103 23 103 2 0 -4 -15 -13
-34 -20 -111 -40 -259 -171 -312 -275 -61 -120 -137 -427 -105 -427 6 0 11 17
11 42 0 55 64 296 100 375 41 90 142 188 249 241 46 23 90 42 97 42 17 0 17 5
4 31 -14 25 -58 24 -129 -1z"/>
<path d="M2210 2003 c63 -44 177 -166 229 -244 81 -121 125 -241 125 -344 1
-85 -24 -175 -49 -175 -10 0 -11 16 -8 68 7 87 -2 78 -11 -11 -7 -67 -6 -68
16 -65 37 5 61 68 66 168 3 75 0 95 -28 175 -17 50 -50 122 -73 160 -46 76
-201 238 -258 268 -32 17 -32 17 -9 0z"/>
<path d="M959 1956 c-25 -12 -56 -30 -69 -39 -34 -24 -118 -106 -147 -143 -64
-84 -167 -464 -126 -464 8 0 12 4 9 9 -19 31 70 334 127 430 40 66 129 149
206 190 64 34 101 40 101 16 0 -8 -4 -15 -10 -15 -18 0 -207 -149 -234 -184
-69 -91 -119 -240 -132 -396 -10 -110 10 -76 25 45 26 200 80 320 189 410 57
48 146 107 176 118 5 2 4 13 -3 25 -15 29 -52 28 -112 -2z"/>
<path d="M2214 1917 c99 -88 211 -220 240 -281 13 -28 31 -83 39 -121 9 -39
16 -59 16 -45 2 45 -35 158 -69 214 -36 59 -182 223 -238 269 -66 52 -57 26
12 -36z"/>
<path d="M2123 1945 c-4 -11 14 -34 55 -71 70 -63 190 -210 221 -271 30 -60
51 -157 50 -233 -1 -79 -10 -114 -30 -118 -13 -2 -16 10 -17 65 -2 99 -19 209
-41 259 -41 91 -120 184 -235 276 -70 56 -71 37 0 -24 212 -184 274 -307 262
-520 l-4 -68 28 0 c38 0 50 32 50 140 1 86 -20 187 -49 245 -32 61 -183 236
-242 280 -22 17 -39 36 -36 43 6 18 -5 15 -12 -3z"/>
<path d="M1456 1633 c-10 -25 10 -39 23 -15 10 19 6 32 -10 32 -4 0 -10 -8
-13 -17z"/>
<path d="M2116 1634 c-4 -9 -4 -19 -2 -22 10 -9 36 8 36 23 0 20 -26 19 -34
-1z"/>
<path d="M1974 1570 c-11 -5 -35 -25 -53 -45 -25 -29 -31 -44 -29 -72 4 -50
29 -64 65 -37 39 29 73 82 73 113 0 31 -27 51 -56 41z m29 -33 c13 -35 -62
-132 -85 -109 -21 21 39 122 73 122 4 0 9 -6 12 -13z"/>
<path d="M970 1533 c-22 -62 -29 -103 -18 -109 5 -4 32 15 59 42 27 26 51 45
54 42 3 -3 -2 -21 -10 -41 -18 -44 -18 -47 -2 -47 7 0 28 16 47 35 19 19 37
35 41 35 4 0 9 -14 11 -31 3 -32 30 -60 45 -46 4 5 2 11 -4 15 -6 4 -14 24
-18 45 -9 48 -21 54 -56 28 l-29 -22 0 25 c0 39 -18 41 -66 7 -49 -34 -50 -34
-30 14 13 31 12 45 -4 45 -3 0 -12 -17 -20 -37z"/>
<path d="M1262 1534 c-60 -73 -45 -157 21 -123 89 46 115 159 37 159 -21 0
-37 -10 -58 -36z m74 1 c9 -22 -15 -72 -44 -96 -51 -40 -55 22 -6 80 29 34 42
38 50 16z"/>
<path d="M1625 1506 c-26 -97 -16 -107 45 -44 27 28 52 49 55 46 4 -3 -1 -22
-9 -42 -21 -50 -3 -55 45 -11 44 40 59 38 59 -6 0 -29 23 -50 38 -34 4 4 1 10
-5 12 -7 3 -13 19 -13 37 0 55 -29 65 -74 27 -17 -15 -18 -15 -12 5 4 14 1 26
-9 34 -13 11 -22 8 -55 -19 -21 -17 -41 -31 -45 -31 -3 0 2 16 10 36 19 45 19
54 1 54 -8 0 -20 -24 -31 -64z"/>
<path d="M1416 1493 c-18 -51 -21 -83 -8 -83 8 0 42 96 42 118 0 28 -19 8 -34
-35z"/>
<path d="M2076 1480 c-23 -83 -8 -98 20 -20 13 35 21 67 18 72 -12 19 -22 4
-38 -52z"/>
<path d="M1187 1178 c-18 -58 -16 -69 11 -45 23 21 29 21 35 0 4 -14 5 -12 6
5 1 24 -18 29 -37 10 -15 -15 -16 -1 -1 41 6 18 9 34 7 36 -2 3 -12 -19 -21
-47z"/>
<path d="M1510 1196 c-7 -23 -16 -33 -25 -30 -7 3 -18 -4 -24 -15 -16 -29 -13
-43 7 -39 9 1 23 -1 29 -5 9 -5 11 -3 7 6 -2 7 2 35 11 61 9 26 14 50 12 53
-3 2 -10 -11 -17 -31z m-24 -64 c-8 -9 -19 -13 -22 -9 -10 9 16 38 28 31 6 -4
4 -13 -6 -22z"/>
<path d="M1801 1203 c-6 -16 -21 -33 -33 -38 -12 -6 -23 -17 -25 -25 -3 -10
-1 -9 7 3 15 23 34 22 27 -2 -2 -10 -1 -25 4 -32 6 -10 9 -6 9 14 0 15 7 44
15 64 8 20 14 38 11 40 -2 2 -9 -9 -15 -24z"/>
<path d="M1286 1158 c-26 -37 -17 -65 12 -36 8 8 15 8 25 -1 12 -10 14 -6 8
21 -8 40 -24 46 -45 16z m34 4 c0 -5 -9 -17 -20 -27 -22 -20 -26 -14 -10 16
11 19 30 26 30 11z"/>
<path d="M1661 1154 c-24 -31 -14 -57 14 -34 12 10 18 10 33 -1 15 -13 16 -12
4 3 -8 9 -11 21 -8 26 3 6 0 15 -8 21 -11 9 -18 6 -35 -15z m23 -15 c-25 -27
-37 -23 -18 6 9 14 20 22 26 19 5 -3 2 -14 -8 -25z"/>
<path d="M1855 1168 c4 -11 2 -18 -4 -18 -6 0 -11 6 -11 13 0 8 -4 7 -10 -3
-5 -8 -9 -24 -9 -35 1 -17 2 -17 6 -2 2 9 11 17 18 17 20 0 29 20 16 33 -9 9
-11 8 -6 -5z"/>
<path d="M1367 1148 c-8 -30 -1 -35 22 -14 11 10 25 15 33 11 10 -6 10 -5 1 5
-10 11 -15 11 -29 -1 -16 -12 -17 -12 -11 4 3 9 3 17 -2 17 -5 0 -11 -10 -14
-22z"/>
<path d="M1536 1154 c-3 -9 -6 -23 -6 -32 0 -12 6 -10 26 9 l26 24 -7 -25 -8
-25 24 20 c13 11 26 22 29 24 3 2 -3 1 -12 -2 -9 -3 -19 -1 -21 6 -3 9 -8 9
-18 0 -18 -18 -30 -16 -23 2 4 8 4 15 1 15 -3 0 -8 -7 -11 -16z"/>
</g>
</svg>
